:FULLY-SPECIFIED
:FORCE-ALL-JOINTS-BE-3DOF
:DEGREES
985
root 1.11542 15.153 32.4948 5.37809 -4.67268 364.124
lfemur 8.69963 1.76851 5.16666
ltibia 3.49861e-14 0 0
lfoot -30.105 -11.7143 0
ltoes -33.8762 0 0
rfemur -32.9601 -15.4958 -6.26304
rtibia 50.8354 0 0
rfoot -22.6051 4.99797 0
rtoes -41.8972 0 0
lowerback -1.55952 -0.419402 0.711649
upperback -0.71732 -0.562807 -5.90918
thorax 0.0696762 -0.297417 -6.54228
lowerneck -6.66561 1.13655 5.87464
upperneck 1.06765 0.934706 3.32563
head 1.46878 0.569495 0.0806115
lclavicle -1.19271e-15 -1.90833e-14 0
lhumerus -58.3302 -45.1106 114.756
lradius 55.0431 0 0
lwrist 25.17 0 0
lhand 37.2967 24.4826 0
lfingers 7.12502 0 0
lthumb 60.119 38.1373 0
rclavicle -1.19271e-15 -1.90833e-14 0
rhumerus 3.74617 -25.0279 -0.173623
rradius 28.014 0 0
rwrist -11.3028 0 0
rhand -31.4609 -44.6274 0
rfingers 7.12502 0 0
rthumb -4.72817 -794.555 0
986
root 1.11629 15.1532 32.4939 5.36465 -4.6416 364.109
lfemur 8.69489 1.73583 5.18208
ltibia 3.36673e-14 0 0
lfoot -30.1062 -11.6972 0
ltoes -33.8895 0 0
rfemur -32.9242 -15.5068 -6.25672
rtibia 50.8202 0 0
rfoot -22.5959 4.99843 0
rtoes -41.9028 0 0
lowerback -1.55771 -0.411857 0.698754
upperback -0.712607 -0.552272 -5.91099
thorax 0.0748008 -0.291906 -6.53661
lowerneck -6.67853 1.13047 5.88651
upperneck 1.08317 0.923601 3.33174
head 1.47604 0.564864 0.0802331
lclavicle -1.10301e-15 -1.88894e-14 0
lhumerus -58.3391 -45.147 114.77
lradius 55.0603 0 0
lwrist 25.1719 0 0
lhand 37.2967 24.496 0
lfingers 7.12502 0 0
lthumb 60.119 38.1507 0
rclavicle -1.10301e-15 -1.88894e-14 0
rhumerus 3.72067 -24.9989 -0.163634
rradius 28.0033 0 0
rwrist -11.2731 0 0
rhand -31.4416 -44.58 0
rfingers 7.12502 0 0
rthumb -4.70953 -794.508 0
987
root 1.11716 15.1533 32.4929 5.35121 -4.61053 364.093
lfemur 8.69015 1.70314 5.1975
ltibia 3.23486e-14 0 0
lfoot -30.1074 -11.6801 0
ltoes -33.9027 0 0
rfemur -32.8884 -15.5178 -6.2504
rtibia 50.805 0 0
rfoot -22.5867 4.9989 0
rtoes -41.9083 0 0
lowerback -1.55589 -0.404313 0.68586
upperback -0.707894 -0.541737 -5.91279
thorax 0.0799255 -0.286396 -6.53093
lowerneck -6.69145 1.12439 5.89839
upperneck 1.0987 0.912496 3.33784
head 1.48331 0.560232 0.0798546
lclavicle -1.01332e-15 -1.86954e-14 0
lhumerus -58.348 -45.1833 114.785
lradius 55.0774 0 0
lwrist 25.1737 0 0
lhand 37.2966 24.5094 0
lfingers 7.12502 0 0
lthumb 60.119 38.1642 0
rclavicle -1.01332e-15 -1.86954e-14 0
rhumerus 3.69516 -24.9699 -0.153646
rradius 27.9926 0 0
rwrist -11.2434 0 0
rhand -31.4223 -44.5327 0
rfingers 7.12502 0 0
rthumb -4.6909 -794.461 0
988
root 1.11803 15.1535 32.492 5.33777 -4.57945 364.078
lfemur 8.68541 1.67046 5.21291
ltibia 3.10298e-14 0 0
lfoot -30.1087 -11.663 0
ltoes -33.916 0 0
rfemur -32.8525 -15.5288 -6.24408
rtibia 50.7898 0 0
rfoot -22.5775 4.99936 0
rtoes -41.9139 0 0
lowerback -1.55408 -0.396768 0.672965
upperback -0.703182 -0.531202 -5.9146
thorax 0.0850501 -0.280885 -6.52526
lowerneck -6.70437 1.11831 5.91026
upperneck 1.11422 0.90139 3.34395
head 1.49057 0.555601 0.0794762
lclavicle -9.23623e-16 -1.85015e-14 0
lhumerus -58.3568 -45.2197 114.799
lradius 55.0946 0 0
lwrist 25.1756 0 0
lhand 37.2966 24.5229 0
lfingers 7.12502 0 0
lthumb 60.1189 38.1776 0
rclavicle -9.23623e-16 -1.85015e-14 0
rhumerus 3.66966 -24.941 -0.143657
rradius 27.9819 0 0
rwrist -11.2137 0 0
rhand -31.403 -44.4853 0
rfingers 7.12502 0 0
rthumb -4.67226 -794.414 0
989
root 1.1189 15.1536 32.491 5.32433 -4.54838 364.063
lfemur 8.68067 1.63778 5.22833
ltibia 2.9711e-14 0 0
lfoot -30.1099 -11.6458 0
ltoes -33.9292 0 0
rfemur -32.8166 -15.5398 -6.23777
rtibia 50.7746 0 0
rfoot -22.5683 4.99982 0
rtoes -41.9195 0 0
lowerback -1.55226 -0.389224 0.66007
upperback -0.698469 -0.520667 -5.91641
thorax 0.0901747 -0.275374 -6.51958
lowerneck -6.71728 1.11223 5.92214
upperneck 1.12974 0.890285 3.35006
head 1.49783 0.55097 0.0790977
lclavicle -8.33928e-16 -1.83076e-14 0
lhumerus -58.3657 -45.2561 114.813
lradius 55.1117 0 0
lwrist 25.1775 0 0
lhand 37.2966 24.5363 0
lfingers 7.12502 0 0
lthumb 60.1189 38.1911 0
rclavicle -8.33928e-16 -1.83076e-14 0
rhumerus 3.64415 -24.912 -0.133669
rradius 27.9712 0 0
rwrist -11.184 0 0
rhand -31.3837 -44.438 0
rfingers 7.12502 0 0
rthumb -4.65362 -794.367 0
990
root 1.11977 15.1538 32.4901 5.3109 -4.5173 364.048
lfemur 8.67593 1.60509 5.24375
ltibia 2.83923e-14 0 0
lfoot -30.1111 -11.6287 0
ltoes -33.9425 0 0
rfemur -32.7808 -15.5508 -6.23145
rtibia 50.7594 0 0
rfoot -22.5591 5.00029 0
rtoes -41.925 0 0
lowerback -1.55045 -0.381679 0.647176
upperback -0.693756 -0.510132 -5.91822
thorax 0.0952993 -0.269864 -6.51391
lowerneck -6.7302 1.10615 5.93401
upperneck 1.14526 0.87918 3.35616
head 1.50509 0.546338 0.0787193
lclavicle -7.44232e-16 -1.81136e-14 0
lhumerus -58.3746 -45.2925 114.827
lradius 55.1289 0 0
lwrist 25.1793 0 0
lhand 37.2966 24.5497 0
lfingers 7.12502 0 0
lthumb 60.1189 38.2045 0
rclavicle -7.44232e-16 -1.81136e-14 0
rhumerus 3.61865 -24.883 -0.12368
rradius 27.9605 0 0
rwrist -11.1544 0 0
rhand -31.3644 -44.3906 0
rfingers 7.12502 0 0
rthumb -4.63498 -794.32 0
991
root 1.12064 15.1539 32.4891 5.29746 -4.48622 364.032
lfemur 8.67119 1.57241 5.25917
ltibia 2.70735e-14 0 0
lfoot -30.1123 -11.6116 0
ltoes -33.9558 0 0
rfemur -32.7449 -15.5618 -6.22513
rtibia 50.7442 0 0
rfoot -22.5499 5.00075 0
rtoes -41.9306 0 0
lowerback -1.54864 -0.374135 0.634281
upperback -0.689043 -0.499597 -5.92002
thorax 0.100424 -0.264353 -6.50824
lowerneck -6.74312 1.10007 5.94589
upperneck 1.16079 0.868075 3.36227
head 1.51236 0.541707 0.0783408
lclavicle -6.54536e-16 -1.79197e-14 0
lhumerus -58.3835 -45.3288 114.842
lradius 55.146 0 0
lwrist 25.1812 0 0
lhand 37.2965 24.5631 0
lfingers 7.12502 0 0
lthumb 60.1189 38.218 0
rclavicle -6.54536e-16 -1.79197e-14 0
rhumerus 3.59314 -24.854 -0.113692
rradius 27.9499 0 0
rwrist -11.1247 0 0
rhand -31.3451 -44.3432 0
rfingers 7.12502 0 0
rthumb -4.61635 -794.273 0
992
root 1.12151 15.1541 32.4882 5.28402 -4.45515 364.017
lfemur 8.66644 1.53973 5.27458
ltibia 2.57547e-14 0 0
lfoot -30.1135 -11.5945 0
ltoes -33.969 0 0
rfemur -32.709 -15.5728 -6.21881
rtibia 50.7291 0 0
rfoot -22.5407 5.00121 0
rtoes -41.9361 0 0
lowerback -1.54682 -0.36659 0.621386
upperback -0.68433 -0.489063 -5.92183
thorax 0.105549 -0.258842 -6.50256
lowerneck -6.75604 1.09399 5.95776
upperneck 1.17631 0.85697 3.36837
head 1.51962 0.537076 0.0779624
lclavicle -5.64841e-16 -1.77257e-14 0
lhumerus -58.3924 -45.3652 114.856
lradius 55.1632 0 0
lwrist 25.1831 0 0
lhand 37.2965 24.5765 0
lfingers 7.12502 0 0
lthumb 60.1188 38.2314 0
rclavicle -5.64841e-16 -1.77257e-14 0
rhumerus 3.56764 -24.825 -0.103703
rradius 27.9392 0 0
rwrist -11.095 0 0
rhand -31.3258 -44.2959 0
rfingers 7.12502 0 0
rthumb -4.59771 -794.226 0
993
root 1.12238 15.1542 32.4872 5.27058 -4.42407 364.002
lfemur 8.6617 1.50705 5.29
ltibia 2.4436e-14 0 0
lfoot -30.1148 -11.5774 0
ltoes -33.9823 0 0
rfemur -32.6732 -15.5838 -6.21249
rtibia 50.7139 0 0
rfoot -22.5315 5.00168 0
rtoes -41.9417 0 0
lowerback -1.54501 -0.359046 0.608492
upperback -0.679618 -0.478528 -5.92364
thorax 0.110673 -0.253332 -6.49689
lowerneck -6.76896 1.08791 5.96964
upperneck 1.19183 0.845865 3.37448
head 1.52688 0.532444 0.0775839
lclavicle -4.75145e-16 -1.75318e-14 0
lhumerus -58.4013 -45.4016 114.87
lradius 55.1803 0 0
lwrist 25.1849 0 0
lhand 37.2965 24.5899 0
lfingers 7.12502 0 0
lthumb 60.1188 38.2449 0
rclavicle -4.75145e-16 -1.75318e-14 0
rhumerus 3.54213 -24.7961 -0.0937149
rradius 27.9285 0 0
rwrist -11.0653 0 0
rhand -31.3065 -44.2485 0
rfingers 7.12502 0 0
rthumb -4.57907 -794.179 0
994
root 1.12325 15.1544 32.4863 5.25714 -4.393 363.987
lfemur 8.65696 1.47436 5.30542
ltibia 2.31172e-14 0 0
lfoot -30.116 -11.5603 0
ltoes -33.9955 0 0
rfemur -32.6373 -15.5948 -6.20617
rtibia 50.6987 0 0
rfoot -22.5223 5.00214 0
rtoes -41.9473 0 0
lowerback -1.54319 -0.351501 0.595597
upperback -0.674905 -0.467993 -5.92545
thorax 0.115798 -0.247821 -6.49121
lowerneck -6.78188 1.08183 5.98151
upperneck 1.20736 0.834759 3.38059
head 1.53415 0.527813 0.0772055
lclavicle -3.8545e-16 -1.73379e-14 0
lhumerus -58.4101 -45.4379 114.885
lradius 55.1975 0 0
lwrist 25.1868 0 0
lhand 37.2965 24.6034 0
lfingers 7.12502 0 0
lthumb 60.1188 38.2583 0
rclavicle -3.8545e-16 -1.73379e-14 0
rhumerus 3.51663 -24.7671 -0.0837264
rradius 27.9178 0 0
rwrist -11.0356 0 0
rhand -31.2872 -44.2012 0
rfingers 7.12502 0 0
rthumb -4.56043 -794.132 0
995
root 1.12412 15.1545 32.4854 5.2437 -4.36192 363.971
lfemur 8.65222 1.44168 5.32084
ltibia 2.17984e-14 0 0
lfoot -30.1172 -11.5432 0
ltoes -34.0088 0 0
rfemur -32.6014 -15.6058 -6.19985
rtibia 50.6835 0 0
rfoot -22.5131 5.0026 0
rtoes -41.9528 0 0
lowerback -1.54138 -0.343956 0.582702
upperback -0.670192 -0.457458 -5.92725
thorax 0.120922 -0.242311 -6.48554
lowerneck -6.7948 1.07575 5.99338
upperneck 1.22288 0.823654 3.38669
head 1.54141 0.523182 0.0768271
lclavicle -2.95754e-16 -1.71439e-14 0
lhumerus -58.419 -45.4743 114.899
lradius 55.2146 0 0
lwrist 25.1887 0 0
lhand 37.2964 24.6168 0
lfingers 7.12502 0 0
lthumb 60.1188 38.2717 0
rclavicle -2.95754e-16 -1.71439e-14 0
rhumerus 3.49112 -24.7381 -0.0737379
rradius 27.9071 0 0
rwrist -11.0059 0 0
rhand -31.2679 -44.1538 0
rfingers 7.12502 0 0
rthumb -4.5418 -794.085 0
996
root 1.125 15.1547 32.4844 5.23026 -4.33085 363.956
lfemur 8.64748 1.409 5.33625
ltibia 2.04797e-14 0 0
lfoot -30.1184 -11.526 0
ltoes -34.022 0 0
rfemur -32.5655 -15.6167 -6.19354
rtibia 50.6683 0 0
rfoot -22.5039 5.00306 0
rtoes -41.9584 0 0
lowerback -1.53957 -0.336412 0.569808
upperback -0.665479 -0.446923 -5.92906
thorax 0.126047 -0.2368 -6.47986
lowerneck -6.80771 1.06967 6.00526
upperneck 1.2384 0.812549 3.3928
head 1.54867 0.51855 0.0764486
lclavicle -2.06058e-16 -1.695e-14 0
lhumerus -58.4279 -45.5107 114.913
lradius 55.2318 0 0
lwrist 25.1906 0 0
lhand 37.2964 24.6302 0
lfingers 7.12502 0 0
lthumb 60.1187 38.2852 0
rclavicle -2.06058e-16 -1.695e-14 0
rhumerus 3.46562 -24.7091 -0.0637494
rradius 27.8964 0 0
rwrist -10.9762 0 0
rhand -31.2486 -44.1064 0
rfingers 7.12502 0 0
rthumb -4.52316 -794.038 0
997
root 1.12587 15.1548 32.4835 5.21682 -4.29977 363.941
lfemur 8.64274 1.37631 5.35167
ltibia 1.91609e-14 0 0
lfoot -30.1196 -11.5089 0
ltoes -34.0353 0 0
rfemur -32.5297 -15.6277 -6.18722
rtibia 50.6531 0 0
rfoot -22.4947 5.00353 0
rtoes -41.964 0 0
lowerback -1.53775 -0.328867 0.556913
upperback -0.660766 -0.436388 -5.93087
thorax 0.131172 -0.231289 -6.47419
lowerneck -6.82063 1.06359 6.01713
upperneck 1.25393 0.801444 3.39891
head 1.55594 0.513919 0.0760702
lclavicle -1.16363e-16 -1.67561e-14 0
lhumerus -58.4368 -45.547 114.928
lradius 55.2489 0 0
lwrist 25.1924 0 0
lhand 37.2964 24.6436 0
lfingers 7.12502 0 0
lthumb 60.1187 38.2986 0
rclavicle -1.16363e-16 -1.67561e-14 0
rhumerus 3.44011 -24.6801 -0.0537609
rradius 27.8857 0 0
rwrist -10.9465 0 0
rhand -31.2293 -44.0591 0
rfingers 7.12502 0 0
rthumb -4.50452 -793.991 0
